<?xml version="1.0" standalone="no"?>
<!DOCTYPE svg PUBLIC "-//W3C//DTD SVG 20010904//EN"
 "http://www.w3.org/TR/2001/REC-SVG-20010904/DTD/svg10.dtd">
<svg version="1.0" xmlns="http://www.w3.org/2000/svg"
 width="1000.000000pt" height="1000.000000pt" viewBox="0 0 1000.000000 1000.000000"
 preserveAspectRatio="xMidYMid meet">
<metadata>
Created by potrace 1.11, written by Peter Selinger 2001-2013
</metadata>
<g transform="translate(0.000000,1000.000000) scale(0.100000,-0.100000)"
fill="#000000" stroke="none">
<path d="M6845 8004 c-80 -11 -98 -17 -130 -45 -26 -23 -36 -43 -45 -83 -8
-38 -10 -297 -8 -862 l4 -809 23 -85 c56 -204 171 -350 343 -435 155 -76 220
-89 448 -89 222 -1 325 15 450 67 234 97 362 240 420 472 26 101 28 314 6 422
-57 271 -243 457 -529 533 l-87 23 0 366 c0 382 -4 426 -43 470 -49 54 -63 55
-457 57 -201 1 -378 0 -395 -2z m749 -150 c14 -14 16 -122 16 -1044 l0 -1028
-22 -6 c-13 -3 -38 -6 -55 -6 l-33 0 0 1050 0 1050 39 0 c23 0 46 -7 55 -16z
m266 -967 c193 -70 300 -258 300 -526 0 -309 -137 -506 -387 -556 l-33 -7 0
561 0 561 33 -7 c17 -3 57 -15 87 -26z"/>
<path d="M3629 7990 c-44 -13 -77 -40 -96 -78 -17 -35 -18 -89 -18 -1102 0
-1055 0 -1065 21 -1105 14 -27 34 -47 64 -62 44 -23 49 -23 455 -23 385 0 413
2 453 20 33 15 47 29 63 64 19 44 19 68 17 1123 l-3 1078 -22 31 c-46 64 -48
64 -500 63 -224 0 -420 -4 -434 -9z m815 -136 c14 -14 16 -122 16 -1044 0
-1141 5 -1060 -66 -1060 l-34 0 0 1060 0 1060 34 0 c19 0 42 -7 50 -16z"/>
<path d="M2460 7766 c-450 -65 -732 -379 -791 -881 -15 -129 -6 -443 16 -545
91 -421 328 -673 710 -756 273 -59 654 4 879 146 36 23 66 49 66 57 0 20 -61
121 -77 127 -7 3 -38 -8 -69 -24 -73 -39 -158 -41 -219 -7 -49 28 -107 103
-134 175 -98 254 -106 885 -15 1172 51 161 125 240 233 248 52 4 70 0 127 -27
36 -17 70 -31 74 -31 11 0 80 114 80 131 0 32 -182 129 -315 167 -186 55 -396
72 -565 48z m375 -269 c-127 -127 -191 -361 -202 -737 -14 -463 59 -786 208
-925 36 -34 43 -45 27 -40 -93 29 -189 117 -242 223 -82 164 -112 371 -103
731 7 295 32 431 104 576 50 99 132 177 221 210 20 7 38 14 39 14 1 1 -22 -23
-52 -52z"/>
<path d="M4967 7098 c-54 -15 -93 -58 -106 -118 -17 -80 -14 -924 4 -1024 35
-198 143 -302 359 -347 215 -44 662 -8 873 71 66 25 73 25 73 2 0 -10 7 -28
16 -40 14 -20 24 -22 99 -22 63 0 88 4 99 16 14 14 16 94 16 728 0 829 13 746
-118 746 -72 0 -83 -2 -96 -22 -14 -20 -16 -96 -16 -629 l0 -607 -40 -16 c-92
-37 -169 -11 -190 62 -6 23 -10 232 -10 557 0 485 -2 523 -19 561 -12 25 -33
50 -57 65 l-39 24 -405 2 c-251 1 -419 -3 -443 -9z m815 -135 c17 -15 18 -45
18 -537 1 -546 3 -569 46 -617 24 -26 16 -30 -30 -14 -53 19 -105 73 -116 121
-5 21 -10 270 -10 552 l0 512 37 0 c20 0 45 -7 55 -17z"/>
</g>
</svg>
